<svg xmlns="http://www.w3.org/2000/svg" viewBox="0 0 560 200" role="img" aria-label="애니메이션 태양계 — 태양, 궤도, 블룸, 라벨">
  <defs>
    <linearGradient id="panel" x1="0%" y1="0%" x2="100%" y2="100%">
      <stop offset="0%" stop-color="#1a2350"/>
      <stop offset="50%" stop-color="#05060d"/>
      <stop offset="100%" stop-color="#0a1020"/>
    </linearGradient>
    <radialGradient id="sunGlow" cx="50%" cy="50%" r="50%">
      <stop offset="0%" stop-color="#ffd54f" stop-opacity="0.95"/>
      <stop offset="60%" stop-color="#ff8f00" stop-opacity="0.25"/>
      <stop offset="100%" stop-color="#ff6600" stop-opacity="0"/>
    </radialGradient>
    <radialGradient id="bloom" cx="50%" cy="50%" r="50%">
      <stop offset="0%" stop-color="#6ee7f7" stop-opacity="0.12"/>
      <stop offset="100%" stop-color="#6ee7f7" stop-opacity="0"/>
    </radialGradient>
    <clipPath id="round">
      <rect width="560" height="200" rx="18"/>
    </clipPath>
  </defs>
  <g clip-path="url(#round)">
    <rect width="560" height="200" fill="url(#panel)"/>
    <rect width="560" height="200" fill="url(#bloom)" opacity="0.8">
      <animate attributeName="opacity" values="0.5;0.9;0.5" dur="6s" repeatCount="indefinite"/>
    </rect>
    <g stroke="#243044" stroke-width="0.6" opacity="0.4">
      <line x1="0" y1="40" x2="560" y2="40"/><line x1="0" y1="80" x2="560" y2="80"/>
      <line x1="0" y1="120" x2="560" y2="120"/><line x1="0" y1="160" x2="560" y2="160"/>
      <line x1="80" y1="0" x2="80" y2="200"/><line x1="160" y1="0" x2="160" y2="200"/>
      <line x1="240" y1="0" x2="240" y2="200"/><line x1="320" y1="0" x2="320" y2="200"/>
      <line x1="400" y1="0" x2="400" y2="200"/><line x1="480" y1="0" x2="480" y2="200"/>
    </g>
    <g transform="translate(280 108)">
      <animateTransform attributeName="transform" type="rotate" values="0 280 108; 8 280 108; 0 280 108; -8 280 108; 0 280 108" dur="14s" repeatCount="indefinite" additive="sum"/>
      <g>
        <animateTransform attributeName="transform" type="rotate" from="0" to="360" dur="18s" repeatCount="indefinite"/>
        <ellipse cx="0" cy="0" rx="118" ry="42" fill="none" stroke="#ffd54f" stroke-opacity="0.35" stroke-width="1.2"/>
        <ellipse cx="0" cy="0" rx="88" ry="30" fill="none" stroke="#6ee7f7" stroke-opacity="0.2" stroke-width="0.8"/>
      </g>
      <circle cx="0" cy="0" r="16" fill="url(#sunGlow)">
        <animate attributeName="r" values="14;18;14" dur="3.5s" repeatCount="indefinite"/>
      </circle>
      <g fill="#6ee7f7">
        <circle cx="-72" cy="-12" r="3"><animate attributeName="opacity" values="0.5;1;0.5" dur="2.2s" repeatCount="indefinite"/></circle>
        <circle cx="-48" cy="8" r="2.5" opacity="0.8"/>
        <circle cx="-90" cy="4" r="2" opacity="0.7"/>
      </g>
      <g fill="#4a9eff">
        <circle cx="58" cy="-18" r="3.2" opacity="0.9"/>
        <circle cx="72" cy="2" r="2.4" opacity="0.8"/>
      </g>
      <g fill="#d4a574">
        <circle cx="-8" cy="32" r="4"><animate attributeName="opacity" values="0.4;0.95;0.4" dur="3s" repeatCount="indefinite"/></circle>
        <circle cx="18" cy="28" r="2.8" opacity="0.85"/>
      </g>
      <g fill="#e8edf5" opacity="0.55">
        <circle cx="-30" cy="-32" r="1.5"/><circle cx="36" cy="14" r="1.2"/>
        <circle cx="-95" cy="12" r="1.4"/><circle cx="90" cy="8" r="1.6"/>
        <circle cx="0" cy="-38" r="1.3"/><circle cx="-40" cy="22" r="1.1"/>
      </g>
      <circle r="4" fill="#6ee7f7" stroke="#fff" stroke-width="0.8" opacity="0.9">
        <animateMotion path="M -95 -8 C -60 -30, 40 -28, 95 6 C 50 35, -70 25, -95 -8" dur="14s" repeatCount="indefinite"/>
      </circle>
    </g>
    <g font-family="Segoe UI, Inter, Arial, sans-serif" font-size="10" font-weight="700" fill="#8a99b0">
      <text x="24" y="24">태양</text>
      <text x="24" y="38" fill="#ffd54f" font-size="9">8 세계 · 2K 맵</text>
      <text x="400" y="24">UNREAL 블룸</text>
      <text x="400" y="38" fill="#6ee7f7" font-size="9">코로나 · 노출</text>
      <text x="24" y="178" fill="#ffd54f">● 자동 궤도</text>
      <text x="110" y="178">행성 라벨</text>
      <text x="430" y="178">동일 출처 맵</text>
    </g>
    <text x="480" y="178" font-family="ui-monospace, monospace" font-size="11" fill="#ffd54f" opacity="0.85">fps 60
      <animate attributeName="opacity" values="0.5;1;0.5" dur="1.2s" repeatCount="indefinite"/>
    </text>
    <rect x="24" y="52" width="512" height="1" fill="#243044" opacity="0.6"/>
    <rect x="24" y="52" width="180" height="1" fill="#ffd54f" opacity="0.7">
      <animate attributeName="width" values="80;220;80" dur="5s" repeatCount="indefinite"/>
      <animate attributeName="opacity" values="0.4;0.95;0.4" dur="5s" repeatCount="indefinite"/>
    </rect>
  </g>
</svg>